Patient4_TMGait_0pt6_02_right_30_GRF.mot
version=1
nRows=59
nColumns=19
inDegrees=no
endheader
time	F1x	F1y	F1z	M1x	M1y	M1z	F2x	F2y	F2z	M2x	M2y	M2z	EC1x	EC1y	EC1z	EC2x	EC2y	EC2z
36.11	-24.9607	745.7373	52.3833	-253.1433	-64.2911	817.8758	3.3018	18.0468	0.046653	4.6135	2.1915	22.5092	-0.0592	0.0182	-0.0073	-0.0462	0.0165	0.9585
36.1219	-16.9939	756.7442	51.7374	-257.4724	-60.8856	831.3357	2.0537	13.0952	-0.073045	3.489	1.7256	16.2703	-0.0592	0.0182	-0.0073	-0.0462	0.0165	0.9585
36.1339	-9.98	768.412	51.182	-262.0409	-57.736	844.209	0.97822	8.9502	-0.13762	2.5453	1.2924	11.0575	-0.0592	0.0182	-0.0073	-0.0462	0.0165	0.9585
36.1458	-4.2122	779.5434	50.7705	-266.395	-55.0118	855.079	0.15181	5.8496	-0.1645	1.8415	0.93785	7.1578	-0.0592	0.0182	-0.0073	-0.0462	0.0165	0.9585
36.1577	0.40664	788.9885	50.5397	-270.1074	-52.748	862.8261	-0.43033	3.7857	-0.16176	1.378	0.67174	4.5625	-0.0592	0.0182	-0.0073	-0.0462	0.0165	0.9585
36.1696	4.1335	795.8083	50.4856	-272.8354	-50.8882	866.6852	-0.79797	2.5789	-0.14691	1.1115	0.48996	3.0535	-0.0592	0.0182	-0.0073	-0.0462	0.0165	0.9585
36.1816	7.2794	799.4051	50.5778	-274.3602	-49.3307	866.3075	-1.0113	1.9981	-0.13077	0.98383	0.38205	2.3438	-0.0592	0.0182	-0.0073	-0.0462	0.0165	0.9585
36.1935	10.1103	799.5907	50.7567	-274.6072	-47.9595	861.7904	-1.1213	1.7735	-0.12039	0.9234	0.33257	2.0851	-0.0592	0.0182	-0.0073	-0.0462	0.0165	0.9585
36.2054	12.7783	796.529	50.957	-273.6265	-46.6813	853.5668	-1.1734	1.6549	-0.12339	0.86034	0.33482	1.9614	-0.0592	0.0182	-0.0073	-0.0462	0.0165	0.9585
36.2174	15.3652	790.6745	51.1158	-271.5713	-45.4236	842.338	-1.1955	1.3964	-0.14556	0.72045	0.38192	1.665	-0.0592	0.0182	-0.0073	-0.0462	0.0165	0.9585
36.2293	17.8899	782.6751	51.1862	-268.6643	-44.1435	828.9543	-1.2143	0.78247	-0.18959	0.43432	0.46404	0.92857	-0.0592	0.0182	-0.0073	-0.0462	0.0165	0.9585
36.2412	20.3422	773.2516	51.142	-265.1523	-42.8222	814.2757	-1.2176	-0.35593	-0.25787	-0.056644	0.56992	-0.45988	-0.0592	0.0182	-0.0073	-0.0462	0.0165	0.9585
36.2531	22.7396	763.089	50.9912	-261.2673	-41.4589	799.0743	-1.1973	-2.1359	-0.34386	-0.79328	0.6822	-2.6441	-0.0592	0.0182	-0.0073	-0.0462	0.0165	0.9585
36.2651	25.1395	752.7704	50.7704	-257.2114	-40.0652	783.9771	-1.1132	-4.5609	-0.43997	-1.7766	0.77441	-5.6313	-0.0592	0.0182	-0.0073	-0.0462	0.0165	0.9585
36.277	27.6174	742.7801	50.5466	-253.1594	-38.67	769.4669	-0.91385	-7.489	-0.52324	-2.9477	0.79754	-9.2444	-0.0592	0.0182	-0.0073	-0.0462	0.0165	0.9585
36.2889	30.2789	733.5548	50.4036	-249.2732	-37.3152	755.9658	-0.53536	-10.5241	-0.55477	-4.1476	0.6809	-12.9889	-0.0592	0.0182	-0.0073	-0.0462	0.0165	0.9585
36.3009	33.2221	725.4929	50.4341	-245.7073	-36.0519	743.8341	0.10333	-12.9033	-0.48652	-5.0738	0.33996	-15.9243	-0.0592	0.0182	-0.0073	-0.0462	0.0165	0.9585
36.3128	36.5314	718.9743	50.6991	-242.6127	-34.9059	733.3919	1.0547	-13.4089	-0.24973	-5.2398	-0.32479	-16.5601	-0.0592	0.0182	-0.0073	-0.0462	0.0165	0.9585
36.3247	40.2725	714.2796	51.22	-240.1098	-33.876	724.8631	2.3487	-10.2736	0.22499	-3.9395	-1.4017	-12.7311	-0.0592	0.0182	-0.0073	-0.0462	0.0165	0.9585
36.3366	44.4692	711.497	51.938	-238.2582	-32.9038	718.2837	3.9233	-1.1869	1.0091	-0.24774	-2.9454	-1.5958	-0.0592	0.0182	-0.0073	-0.0462	0.0165	0.9585
36.3486	49.0588	710.3872	52.7417	-237.011	-31.9076	713.3841	5.613	16.5829	2.1467	6.9285	-4.9243	20.2105	-0.0592	0.0182	-0.0073	-0.0462	0.0165	0.9585
36.3605	53.9263	710.2238	53.4493	-236.1616	-30.7585	709.4492	7.0699	45.839	3.637	18.7052	-7.173	56.1454	-0.0592	0.0182	-0.0073	-0.0462	0.0165	0.9585
36.3724	58.8616	709.7005	53.8415	-235.3086	-29.3185	705.2293	7.7113	88.7641	5.388	35.9442	-9.3187	108.9054	-0.0592	0.0182	-0.0073	-0.0462	0.0165	0.9585
36.3844	63.5743	706.9063	53.6363	-233.8458	-27.4167	698.9133	6.6745	145.8373	7.1634	58.8153	-10.6931	179.106	-0.0592	0.0182	-0.0073	-0.0462	0.0165	0.9585
36.3963	67.7183	699.458	52.5291	-231.0038	-24.8808	688.265	2.7946	214.2415	8.5197	86.1597	-10.2738	263.3197	-0.0592	0.0182	-0.0073	-0.0462	0.0165	0.9585
36.4082	70.8885	684.8257	50.2524	-225.954	-21.604	670.936	-4.9741	286.2077	8.7191	114.8275	-6.8135	352.0515	-0.0592	0.0182	-0.0073	-0.0462	0.0165	0.9585
36.4201	72.68	660.7945	46.663	-217.9631	-17.6036	644.8916	-15.3894	349.8074	6.6953	140.0288	0.32302	430.6016	-0.0592	0.0182	-0.0073	-0.0462	0.0165	0.9585
36.4321	72.7863	626.1263	41.8536	-206.6001	-13.0893	609.0209	-25.3173	395.85	1.9784	158.0788	10.2825	487.377	-0.0592	0.0182	-0.0073	-0.0462	0.0165	0.9585
36.444	71.0443	581.0297	36.1828	-191.8813	-8.4498	563.5881	-32.9809	422.373	-4.3022	168.1966	21.0597	519.6945	-0.0592	0.0182	-0.0073	-0.0462	0.0165	0.9585
36.4559	67.6026	526.9064	30.2573	-174.209	-4.1883	509.9467	-37.6594	433.105	-11.7402	171.8977	31.8001	532.0138	-0.0592	0.0182	-0.0073	-0.0462	0.0165	0.9585
36.4679	62.7141	466.2279	24.6018	-154.3392	-0.682	450.4722	-39.719	435.1799	-18.8456	172.1084	40.9989	533.1054	-0.0592	0.0182	-0.0073	-0.0462	0.0165	0.9585
36.4798	56.7175	402.0239	19.5779	-133.2388	1.8651	388.0048	-39.877	436.2035	-25.1867	171.9249	48.3989	532.3415	-0.0592	0.0182	-0.0073	-0.0462	0.0165	0.9585
36.4917	49.8194	337.5942	15.3218	-111.982	3.4066	325.6747	-38.9374	442.603	-29.9353	173.9782	53.4627	537.5209	-0.0592	0.0182	-0.0073	-0.0462	0.0165	0.9585
36.5036	42.2731	276.0091	11.7957	-91.5977	4.0503	266.324	-37.5216	458.5746	-33.2082	179.9584	56.5829	553.6932	-0.0592	0.0182	-0.0073	-0.0462	0.0165	0.9585
36.5156	34.3018	219.9157	8.9164	-72.9791	3.9439	212.4356	-36.0256	485.9611	-35.296	190.576	58.3207	583.027	-0.0592	0.0182	-0.0073	-0.0462	0.0165	0.9585
36.5275	26.3183	171.1499	6.6131	-56.7622	3.2869	165.6372	-34.6475	523.9765	-37.0279	205.4505	59.7185	624.5953	-0.0592	0.0182	-0.0073	-0.0462	0.0165	0.9585
36.5394	18.6658	130.6318	4.8891	-43.2667	2.2017	126.7775	-33.3822	569.577	-39.2249	223.3143	61.7118	674.7572	-0.0592	0.0182	-0.0073	-0.0462	0.0165	0.9585
36.5514	11.736	98.18	3.6952	-32.4543	0.86973	95.6005	-32.2099	618.5538	-42.3984	242.4432	64.8671	728.5359	-0.0592	0.0182	-0.0073	-0.0462	0.0165	0.9585
36.5633	5.6857	72.9053	2.953	-24.0368	-0.57099	71.2863	-31.0431	666.5975	-46.7874	261.1196	69.3846	780.853	-0.0592	0.0182	-0.0073	-0.0462	0.0165	0.9585
36.5752	0.72832	53.4995	2.5188	-17.5882	-1.9149	52.5611	-29.88	710.2822	-51.9314	278.0036	74.7367	827.7501	-0.0592	0.0182	-0.0073	-0.0462	0.0165	0.9585
36.5871	-3.0814	38.6806	2.2583	-12.6777	-3.0108	38.263	-28.6204	747.0672	-57.3701	292.1344	80.321	866.3211	-0.0592	0.0182	-0.0073	-0.0462	0.0165	0.9585
36.5991	-5.5731	27.3334	2.039	-8.9351	-3.6888	27.2999	-27.2604	775.2678	-62.4162	302.8924	85.3508	894.7312	-0.0592	0.0182	-0.0073	-0.0462	0.0165	0.9585
36.611	-6.7218	18.6408	1.7787	-6.0851	-3.8696	18.9363	-25.6751	793.9047	-66.8396	309.9261	89.4786	911.9367	-0.0592	0.0182	-0.0073	-0.0462	0.0165	0.9585
36.6229	-6.5177	12.0197	1.4458	-3.9339	-3.5306	12.5469	-23.9108	802.9505	-70.3155	313.2448	92.3602	918.0292	-0.0592	0.0182	-0.0073	-0.0462	0.0165	0.9585
36.6349	-5.4061	7.226	1.0721	-2.3886	-2.849	7.9073	-21.9777	803.2477	-72.9069	313.1933	94.0561	914.0701	-0.0592	0.0182	-0.0073	-0.0462	0.0165	0.9585
36.6468	-3.9557	4.0891	0.72956	-1.3849	-2.077	4.847	-20.0242	796.6278	-74.5468	310.489	94.5758	902.2467	-0.0592	0.0182	-0.0073	-0.0462	0.0165	0.9585
36.6587	-2.5421	2.2868	0.45741	-0.81505	-1.3739	3.0853	-18.0988	785.5361	-75.4098	306.0902	94.1559	885.3666	-0.0592	0.0182	-0.0073	-0.0462	0.0165	0.9585
36.6706	-1.3502	1.4639	0.26607	-0.56303	-0.80741	2.2924	-16.2499	772.8157	-75.5514	301.1001	92.9187	866.6818	-0.0592	0.0182	-0.0073	-0.0462	0.0165	0.9585
36.6826	-0.44784	1.2904	0.14383	-0.52035	-0.39191	2.127	-14.394	761.0031	-75.2215	296.4952	91.1369	849.0336	-0.0592	0.0182	-0.0073	-0.0462	0.0165	0.9585
36.6945	0.15762	1.5098	0.076171	-0.60106	-0.11774	2.3334	-12.5149	751.9026	-74.6036	292.9606	89.028	834.45	-0.0592	0.0182	-0.0073	-0.0462	0.0165	0.9585
36.7064	0.53694	1.9201	0.043303	-0.74163	0.048137	2.7173	-10.5222	746.3624	-73.932	290.8087	86.8334	823.8486	-0.0592	0.0182	-0.0073	-0.0462	0.0165	0.9585
36.7184	0.72273	2.396	0.038775	-0.9	0.11995	3.1804	-8.4234	744.433	-73.3344	290.0394	84.7062	817.2938	-0.0592	0.0182	-0.0073	-0.0462	0.0165	0.9585
36.7303	0.79352	2.832	0.050079	-1.0429	0.13263	3.5985	-6.2123	745.4858	-72.8882	290.3984	82.742	814.0741	-0.0592	0.0182	-0.0073	-0.0462	0.0165	0.9585
36.7422	0.76125	3.1635	0.08098	-1.1477	0.089901	3.9229	-3.9533	748.4829	-72.6382	291.4765	81.0154	813.0709	-0.0592	0.0182	-0.0073	-0.0462	0.0165	0.9585
36.7541	0.68546	3.2895	0.1183	-1.1829	0.023496	4.0032	-1.6919	752.1718	-72.5397	292.7967	79.5146	812.9194	-0.0592	0.0182	-0.0073	-0.0462	0.0165	0.9585
36.7661	0.54678	3.1293	0.16076	-1.1168	-0.065231	3.7696	0.49594	755.3536	-72.5598	293.9024	78.238	812.3357	-0.0592	0.0182	-0.0073	-0.0462	0.0165	0.9585
36.778	0.4084	2.5474	0.19453	-0.90289	-0.14882	3.04	2.5758	757.0533	-72.5731	294.4315	77.0761	810.2586	-0.0592	0.0182	-0.0073	-0.0462	0.0165	0.9585
36.7899	0.2261	1.4483	0.21229	-0.50075	-0.23083	1.7285	4.5083	756.655	-72.5232	294.1586	75.9746	806.0359	-0.0592	0.0182	-0.0073	-0.0462	0.0165	0.9585
36.8019	0.076916	-0.28944	0.2085	0.1296	-0.28178	-0.34449	6.2921	753.9901	-72.3082	293.0314	74.8215	799.4767	-0.0592	0.0182	-0.0073	-0.0462	0.0165	0.9585
